# MagicaVoxel @ Ephtracy

# group
o 

# material
mtllib Chair.mtl
usemtl palette

# normals
vn -1 0 0
vn 1 0 0
vn 0 0 1
vn 0 0 -1
vn 0 -1 0
vn 0 1 0

# texcoords
vt 0.205078 0.5
vt 0.208984 0.5
vt 0.212891 0.5
vt 0.306641 0.5
vt 0.958984 0.5

# verts
v -4 0 4
v -4 0 2.8
v -4 0 -2.9
v -4 0 -4
v -4 2.9 -3.9
v -4 2.9 -4
v -4 3 4
v -4 3 2.8
v -4 3 -2.9
v -4 3 -3.9
v -4 5.6 4
v -4 5.6 3.9
v -4 5.6 3.8
v -4 5.6 2.8
v -4 5.6 -2.9
v -4 5.6 -4
v -4 5.7 3.9
v -4 5.7 3.8
v -4 16 4
v -4 16 -4
v -2.5 7.8 -1.5
v -2.5 7.8 -3.3
v -2.5 7.9 -3.3
v -2.5 7.9 -3.4
v -2.5 8.1 3.5
v -2.5 8.1 -1.5
v -2.5 8.2 3.5
v -2.5 8.2 -3.4
v -2.4 7.7 3.4
v -2.4 7.7 -3.2
v -2.4 7.8 3.5
v -2.4 7.8 3.4
v -2.4 7.8 -1.5
v -2.4 7.8 -3.2
v -2.4 8.1 3.5
v -2.4 8.1 -1.5
v -2.4 8.2 3.4
v -2.4 8.2 -3.2
v -2.4 8.3 3.4
v -2.4 8.3 -3.2
v -2.2 8.3 3.3
v -2.2 8.3 -3
v -2.2 8.4 3.3
v -2.2 8.4 -3
v 2.6 0 4
v 2.6 0 2.8
v 2.6 0 -2.9
v 2.6 0 -4
v 2.6 2.9 -3.9
v 2.6 2.9 -4
v 2.6 3 4
v 2.6 3 2.8
v 2.6 3 -2.9
v 2.6 3 -3.9
v 2.6 5.5 -3.8
v 2.6 5.5 -3.9
v 2.6 5.6 4
v 2.6 5.6 3.9
v 2.6 5.6 3.8
v 2.6 5.6 2.8
v 2.6 5.6 -2.9
v 2.6 5.6 -3.8
v 2.6 5.6 -3.9
v 2.6 5.6 -4
v -3 7.7 4
v -3 7.7 -4
v -3 16 4
v -3 16 -4
v -2.6 0 4
v -2.6 0 2.8
v -2.6 0 -2.9
v -2.6 0 -4
v -2.6 2.9 -3.9
v -2.6 2.9 -4
v -2.6 3 4
v -2.6 3 2.8
v -2.6 3 -2.9
v -2.6 3 -3.9
v -2.6 5.5 -3.8
v -2.6 5.5 -3.9
v -2.6 5.6 4
v -2.6 5.6 3.9
v -2.6 5.6 3.8
v -2.6 5.6 2.8
v -2.6 5.6 -2.9
v -2.6 5.6 -3.8
v -2.6 5.6 -3.9
v -2.6 5.6 -4
v 3 7.7 3.4
v 3 7.7 -3.2
v 3 7.8 3.4
v 3 7.8 -3.2
v 3 8.3 3.3
v 3 8.3 -3
v 3 8.4 3.3
v 3 8.4 -3
v 3.1 7.8 3.5
v 3.1 7.8 -3.3
v 3.1 7.9 3.5
v 3.1 7.9 -3.3
v 3.1 8.2 3.4
v 3.1 8.2 -3.2
v 3.1 8.3 3.4
v 3.1 8.3 -3.2
v 3.2 7.9 3.5
v 3.2 7.9 -3.4
v 3.2 8.2 3.5
v 3.2 8.2 -3.4
v 4 0 4
v 4 0 2.8
v 4 0 -2.9
v 4 0 -4
v 4 2.9 -3.9
v 4 2.9 -4
v 4 3 4
v 4 3 2.8
v 4 3 -2.9
v 4 3 -3.9
v 4 5.5 -3.8
v 4 5.5 -3.9
v 4 5.6 3.8
v 4 5.6 2.8
v 4 5.6 -2.9
v 4 5.6 -3.8
v 4 5.6 -3.9
v 4 5.6 -4
v 4 5.7 4
v 4 5.7 3.8
v 4 7.7 4
v 4 7.7 -4
v -4 0 4
v -4 3 4
v -4 5.6 4
v -4 16 4
v -3 7.7 4
v -3 16 4
v -2.6 0 4
v -2.6 3 4
v -2.6 5.6 4
v 2.6 0 4
v 2.6 3 4
v 2.6 5.6 4
v 3.9 5.6 4
v 3.9 5.7 4
v 4 0 4
v 4 3 4
v 4 5.7 4
v 4 7.7 4
v -2.5 8.1 3.5
v -2.5 8.2 3.5
v -2.4 7.8 3.5
v -2.4 8.1 3.5
v 3.1 7.8 3.5
v 3.1 7.9 3.5
v 3.2 7.9 3.5
v 3.2 8.2 3.5
v -2.4 7.7 3.4
v -2.4 7.8 3.4
v -2.4 8.2 3.4
v -2.4 8.3 3.4
v 3 7.7 3.4
v 3 7.8 3.4
v 3.1 8.2 3.4
v 3.1 8.3 3.4
v -2.2 8.3 3.3
v -2.2 8.4 3.3
v 3 8.3 3.3
v 3 8.4 3.3
v -2.5 7.8 -1.5
v -2.5 8.1 -1.5
v -2.4 7.8 -1.5
v -2.4 8.1 -1.5
v -4 0 -2.9
v -4 3 -2.9
v -4 5.6 -2.9
v -2.6 0 -2.9
v -2.6 3 -2.9
v -2.6 5.6 -2.9
v 2.6 0 -2.9
v 2.6 3 -2.9
v 2.6 5.6 -2.9
v 4 0 -2.9
v 4 3 -2.9
v 4 5.6 -2.9
v -4 0 2.8
v -4 3 2.8
v -4 5.6 2.8
v -2.6 0 2.8
v -2.6 3 2.8
v -2.6 5.6 2.8
v 2.6 0 2.8
v 2.6 3 2.8
v 2.6 5.6 2.8
v 4 0 2.8
v 4 3 2.8
v 4 5.6 2.8
v -2.2 8.3 -3
v -2.2 8.4 -3
v 3 8.3 -3
v 3 8.4 -3
v -2.4 7.7 -3.2
v -2.4 7.8 -3.2
v -2.4 8.2 -3.2
v -2.4 8.3 -3.2
v 3 7.7 -3.2
v 3 7.8 -3.2
v 3.1 8.2 -3.2
v 3.1 8.3 -3.2
v -2.5 7.8 -3.3
v -2.5 7.9 -3.3
v 3.1 7.8 -3.3
v 3.1 7.9 -3.3
v -2.5 7.9 -3.4
v -2.5 8.2 -3.4
v 3.2 7.9 -3.4
v 3.2 8.2 -3.4
v -4 0 -4
v -4 2.9 -4
v -4 5.6 -4
v -4 16 -4
v -3 7.7 -4
v -3 16 -4
v -2.6 0 -4
v -2.6 2.9 -4
v -2.6 5.6 -4
v 2.6 0 -4
v 2.6 2.9 -4
v 2.6 5.6 -4
v 4 0 -4
v 4 2.9 -4
v 4 5.6 -4
v 4 7.7 -4
v -4 0 4
v -2.6 0 4
v 2.6 0 4
v 4 0 4
v -4 0 2.8
v -2.6 0 2.8
v 2.6 0 2.8
v 4 0 2.8
v -4 0 -2.9
v -2.6 0 -2.9
v 2.6 0 -2.9
v 4 0 -2.9
v -4 0 -4
v -2.6 0 -4
v 2.6 0 -4
v 4 0 -4
v -2.6 5.6 4
v 2.6 5.6 4
v -2.6 5.6 3.9
v 2.6 5.6 3.9
v -2.6 5.6 3.8
v 2.6 5.6 3.8
v -4 5.6 2.8
v -2.6 5.6 2.8
v 2.6 5.6 2.8
v 4 5.6 2.8
v -4 5.6 -2.9
v -2.6 5.6 -2.9
v 2.6 5.6 -2.9
v 4 5.6 -2.9
v -2.6 5.6 -3.8
v 2.6 5.6 -3.8
v -2.6 5.6 -3.9
v 2.6 5.6 -3.9
v -2.6 5.6 -4
v 2.6 5.6 -4
v -2.4 7.8 3.5
v 3.1 7.8 3.5
v -2.4 7.8 3.4
v 3 7.8 3.4
v -2.5 7.8 -1.5
v -2.4 7.8 -1.5
v -2.4 7.8 -3.2
v 3 7.8 -3.2
v -2.5 7.8 -3.3
v 3.1 7.8 -3.3
v 3.1 7.9 3.5
v 3.2 7.9 3.5
v -2.5 7.9 -3.3
v 3.1 7.9 -3.3
v -2.5 7.9 -3.4
v 3.2 7.9 -3.4
v -2.5 8.1 3.5
v -2.4 8.1 3.5
v -2.5 8.1 -1.5
v -2.4 8.1 -1.5
v -3 7.7 4
v 4 7.7 4
v -2.4 7.7 3.4
v 3 7.7 3.4
v -2.4 7.7 -3.2
v 3 7.7 -3.2
v -3 7.7 -4
v 4 7.7 -4
v -2.5 8.2 3.5
v 3.2 8.2 3.5
v -2.4 8.2 3.4
v 3.1 8.2 3.4
v -2.4 8.2 -3.2
v 3.1 8.2 -3.2
v -2.5 8.2 -3.4
v 3.2 8.2 -3.4
v -2.4 8.3 3.4
v 3.1 8.3 3.4
v -2.2 8.3 3.3
v 3 8.3 3.3
v -2.2 8.3 -3
v 3 8.3 -3
v -2.4 8.3 -3.2
v 3.1 8.3 -3.2
v -2.2 8.4 3.3
v 3 8.4 3.3
v -2.2 8.4 -3
v 3 8.4 -3
v -4 16 4
v -3 16 4
v -4 16 -4
v -3 16 -4

# faces
f 5/3/1 4/3/1 3/3/1
f 6/3/1 4/3/1 5/3/1
f 7/3/1 2/3/1 1/3/1
f 8/3/1 2/3/1 7/3/1
f 9/3/1 5/3/1 3/3/1
f 10/2/1 6/2/1 5/2/1
f 10/3/1 5/3/1 9/3/1
f 11/2/1 8/2/1 7/2/1
f 12/2/1 8/2/1 11/2/1
f 13/2/1 8/2/1 12/2/1
f 14/2/1 8/2/1 13/2/1
f 15/2/1 10/2/1 9/2/1
f 16/2/1 6/2/1 10/2/1
f 16/2/1 10/2/1 15/2/1
f 17/1/1 12/1/1 11/1/1
f 17/2/1 13/2/1 12/2/1
f 18/1/1 15/1/1 14/1/1
f 18/2/1 13/2/1 17/2/1
f 18/1/1 14/1/1 13/1/1
f 18/1/1 16/1/1 15/1/1
f 19/1/1 17/1/1 11/1/1
f 19/1/1 18/1/1 17/1/1
f 20/1/1 16/1/1 18/1/1
f 20/1/1 18/1/1 19/1/1
f 23/5/1 22/5/1 21/5/1
f 26/5/1 23/5/1 21/5/1
f 26/5/1 24/5/1 23/5/1
f 27/5/1 26/5/1 25/5/1
f 28/5/1 24/5/1 26/5/1
f 28/5/1 26/5/1 27/5/1
f 32/5/1 30/5/1 29/5/1
f 33/5/1 30/5/1 32/5/1
f 34/5/1 30/5/1 33/5/1
f 35/5/1 32/5/1 31/5/1
f 35/5/1 33/5/1 32/5/1
f 36/5/1 33/5/1 35/5/1
f 39/5/1 38/5/1 37/5/1
f 40/5/1 38/5/1 39/5/1
f 43/5/1 42/5/1 41/5/1
f 44/5/1 42/5/1 43/5/1
f 49/3/1 48/3/1 47/3/1
f 50/3/1 48/3/1 49/3/1
f 51/3/1 46/3/1 45/3/1
f 52/3/1 46/3/1 51/3/1
f 53/3/1 49/3/1 47/3/1
f 54/2/1 50/2/1 49/2/1
f 54/3/1 49/3/1 53/3/1
f 55/2/1 54/2/1 53/2/1
f 56/2/1 50/2/1 54/2/1
f 56/2/1 54/2/1 55/2/1
f 57/2/1 52/2/1 51/2/1
f 58/2/1 52/2/1 57/2/1
f 59/2/1 52/2/1 58/2/1
f 60/2/1 52/2/1 59/2/1
f 61/2/1 55/2/1 53/2/1
f 62/4/1 56/4/1 55/4/1
f 62/2/1 55/2/1 61/2/1
f 63/2/1 50/2/1 56/2/1
f 63/4/1 56/4/1 62/4/1
f 64/2/1 50/2/1 63/2/1
f 65/1/2 66/1/2 67/1/2
f 67/1/2 66/1/2 68/1/2
f 71/3/2 72/3/2 73/3/2
f 73/3/2 72/3/2 74/3/2
f 69/3/2 70/3/2 75/3/2
f 75/3/2 70/3/2 76/3/2
f 71/3/2 73/3/2 77/3/2
f 73/2/2 74/2/2 78/2/2
f 77/3/2 73/3/2 78/3/2
f 77/2/2 78/2/2 79/2/2
f 78/2/2 74/2/2 80/2/2
f 79/2/2 78/2/2 80/2/2
f 75/2/2 76/2/2 81/2/2
f 81/2/2 76/2/2 82/2/2
f 82/2/2 76/2/2 83/2/2
f 83/2/2 76/2/2 84/2/2
f 77/2/2 79/2/2 85/2/2
f 79/4/2 80/4/2 86/4/2
f 85/2/2 79/2/2 86/2/2
f 80/2/2 74/2/2 87/2/2
f 86/4/2 80/4/2 87/4/2
f 87/2/2 74/2/2 88/2/2
f 89/5/2 90/5/2 91/5/2
f 91/5/2 90/5/2 92/5/2
f 93/5/2 94/5/2 95/5/2
f 95/5/2 94/5/2 96/5/2
f 97/5/2 98/5/2 99/5/2
f 99/5/2 98/5/2 100/5/2
f 101/5/2 102/5/2 103/5/2
f 103/5/2 102/5/2 104/5/2
f 105/5/2 106/5/2 107/5/2
f 107/5/2 106/5/2 108/5/2
f 111/3/2 112/3/2 113/3/2
f 113/3/2 112/3/2 114/3/2
f 109/3/2 110/3/2 115/3/2
f 115/3/2 110/3/2 116/3/2
f 111/3/2 113/3/2 117/3/2
f 113/2/2 114/2/2 118/2/2
f 117/3/2 113/3/2 118/3/2
f 117/2/2 118/2/2 119/2/2
f 118/2/2 114/2/2 120/2/2
f 119/2/2 118/2/2 120/2/2
f 115/2/2 116/2/2 121/2/2
f 121/2/2 116/2/2 122/2/2
f 117/2/2 119/2/2 123/2/2
f 119/4/2 120/4/2 124/4/2
f 123/2/2 119/2/2 124/2/2
f 120/2/2 114/2/2 125/2/2
f 124/4/2 120/4/2 125/4/2
f 125/2/2 114/2/2 126/2/2
f 115/2/2 121/2/2 127/2/2
f 123/1/2 124/1/2 128/1/2
f 127/2/2 121/2/2 128/2/2
f 121/1/2 122/1/2 128/1/2
f 125/1/2 126/1/2 128/1/2
f 124/1/2 125/1/2 128/1/2
f 122/1/2 123/1/2 128/1/2
f 127/1/2 128/1/2 129/1/2
f 128/1/2 126/1/2 130/1/2
f 129/1/2 128/1/2 130/1/2
f 135/1/3 134/1/3 133/1/3
f 136/1/3 134/1/3 135/1/3
f 137/3/3 132/3/3 131/3/3
f 138/2/3 133/2/3 132/2/3
f 138/3/3 132/3/3 137/3/3
f 139/1/3 135/1/3 133/1/3
f 139/2/3 133/2/3 138/2/3
f 142/1/3 135/1/3 139/1/3
f 143/1/3 135/1/3 142/1/3
f 143/2/3 142/2/3 141/2/3
f 144/1/3 135/1/3 143/1/3
f 145/3/3 141/3/3 140/3/3
f 146/2/3 143/2/3 141/2/3
f 146/3/3 141/3/3 145/3/3
f 146/2/3 144/2/3 143/2/3
f 147/1/3 135/1/3 144/1/3
f 147/2/3 144/2/3 146/2/3
f 148/1/3 135/1/3 147/1/3
f 152/5/3 150/5/3 149/5/3
f 153/5/3 152/5/3 151/5/3
f 154/5/3 152/5/3 153/5/3
f 155/5/3 152/5/3 154/5/3
f 156/5/3 150/5/3 152/5/3
f 156/5/3 152/5/3 155/5/3
f 161/5/3 158/5/3 157/5/3
f 162/5/3 158/5/3 161/5/3
f 163/5/3 160/5/3 159/5/3
f 164/5/3 160/5/3 163/5/3
f 167/5/3 166/5/3 165/5/3
f 168/5/3 166/5/3 167/5/3
f 171/5/3 170/5/3 169/5/3
f 172/5/3 170/5/3 171/5/3
f 176/3/3 174/3/3 173/3/3
f 177/2/3 175/2/3 174/2/3
f 177/3/3 174/3/3 176/3/3
f 178/2/3 175/2/3 177/2/3
f 182/3/3 180/3/3 179/3/3
f 183/2/3 181/2/3 180/2/3
f 183/3/3 180/3/3 182/3/3
f 184/2/3 181/2/3 183/2/3
f 185/3/4 186/3/4 188/3/4
f 186/2/4 187/2/4 189/2/4
f 188/3/4 186/3/4 189/3/4
f 189/2/4 187/2/4 190/2/4
f 191/3/4 192/3/4 194/3/4
f 192/2/4 193/2/4 195/2/4
f 194/3/4 192/3/4 195/3/4
f 195/2/4 193/2/4 196/2/4
f 197/5/4 198/5/4 199/5/4
f 199/5/4 198/5/4 200/5/4
f 201/5/4 202/5/4 205/5/4
f 205/5/4 202/5/4 206/5/4
f 203/5/4 204/5/4 207/5/4
f 207/5/4 204/5/4 208/5/4
f 209/5/4 210/5/4 211/5/4
f 211/5/4 210/5/4 212/5/4
f 213/5/4 214/5/4 215/5/4
f 215/5/4 214/5/4 216/5/4
f 219/1/4 220/1/4 221/1/4
f 221/1/4 220/1/4 222/1/4
f 217/3/4 218/3/4 223/3/4
f 218/2/4 219/2/4 224/2/4
f 223/3/4 218/3/4 224/3/4
f 219/1/4 221/1/4 225/1/4
f 224/2/4 219/2/4 225/2/4
f 225/1/4 221/1/4 228/1/4
f 226/3/4 227/3/4 229/3/4
f 227/2/4 228/2/4 230/2/4
f 229/3/4 227/3/4 230/3/4
f 228/1/4 221/1/4 231/1/4
f 230/2/4 228/2/4 231/2/4
f 231/1/4 221/1/4 232/1/4
f 237/3/5 234/3/5 233/3/5
f 238/3/5 234/3/5 237/3/5
f 239/3/5 236/3/5 235/3/5
f 240/3/5 236/3/5 239/3/5
f 245/3/5 242/3/5 241/3/5
f 246/3/5 242/3/5 245/3/5
f 247/3/5 244/3/5 243/3/5
f 248/3/5 244/3/5 247/3/5
f 251/1/5 250/1/5 249/1/5
f 252/1/5 250/1/5 251/1/5
f 253/2/5 252/2/5 251/2/5
f 254/2/5 252/2/5 253/2/5
f 256/1/5 254/1/5 253/1/5
f 257/1/5 254/1/5 256/1/5
f 259/1/5 257/1/5 256/1/5
f 259/1/5 258/1/5 257/1/5
f 259/1/5 256/1/5 255/1/5
f 260/1/5 258/1/5 259/1/5
f 261/1/5 258/1/5 260/1/5
f 262/1/5 258/1/5 261/1/5
f 263/1/5 261/1/5 260/1/5
f 264/1/5 261/1/5 263/1/5
f 265/1/5 264/1/5 263/1/5
f 266/1/5 264/1/5 265/1/5
f 267/1/5 266/1/5 265/1/5
f 268/1/5 266/1/5 267/1/5
f 271/5/5 270/5/5 269/5/5
f 272/5/5 270/5/5 271/5/5
f 275/5/5 274/5/5 273/5/5
f 276/5/5 270/5/5 272/5/5
f 277/5/5 275/5/5 273/5/5
f 277/5/5 276/5/5 275/5/5
f 278/5/5 270/5/5 276/5/5
f 278/5/5 276/5/5 277/5/5
f 282/5/5 280/5/5 279/5/5
f 283/5/5 282/5/5 281/5/5
f 284/5/5 280/5/5 282/5/5
f 284/5/5 282/5/5 283/5/5
f 287/5/5 286/5/5 285/5/5
f 288/5/5 286/5/5 287/5/5
f 289/1/6 290/1/6 291/1/6
f 291/1/6 290/1/6 292/1/6
f 289/1/6 291/1/6 293/1/6
f 292/1/6 290/1/6 294/1/6
f 289/1/6 293/1/6 295/1/6
f 293/1/6 294/1/6 295/1/6
f 294/1/6 290/1/6 296/1/6
f 295/1/6 294/1/6 296/1/6
f 297/5/6 298/5/6 299/5/6
f 299/5/6 298/5/6 300/5/6
f 297/5/6 299/5/6 301/5/6
f 300/5/6 298/5/6 302/5/6
f 297/5/6 301/5/6 303/5/6
f 301/5/6 302/5/6 303/5/6
f 302/5/6 298/5/6 304/5/6
f 303/5/6 302/5/6 304/5/6
f 305/5/6 306/5/6 307/5/6
f 307/5/6 306/5/6 308/5/6
f 305/5/6 307/5/6 309/5/6
f 308/5/6 306/5/6 310/5/6
f 305/5/6 309/5/6 311/5/6
f 309/5/6 310/5/6 311/5/6
f 310/5/6 306/5/6 312/5/6
f 311/5/6 310/5/6 312/5/6
f 313/5/6 314/5/6 315/5/6
f 315/5/6 314/5/6 316/5/6
f 317/1/6 318/1/6 319/1/6
f 319/1/6 318/1/6 320/1/6
