# MagicaVoxel @ Ephtracy

# group
o 

# material
mtllib Peluche.mtl
usemtl palette

# normals
vn -1 0 0
vn 1 0 0
vn 0 0 1
vn 0 0 -1
vn 0 -1 0
vn 0 1 0

# texcoords
vt 0.201172 0.5
vt 0.205078 0.5
vt 0.208984 0.5
vt 0.212891 0.5
vt 0.232422 0.5
vt 0.365234 0.5
vt 0.560547 0.5
vt 0.955078 0.5
vt 0.986328 0.5

# verts
v -0.2 1.6 0.3
v -0.2 1.6 0.2
v -0.2 1.6 -0.3
v -0.2 1.6 -0.4
v -0.2 1.7 0.3
v -0.2 1.7 0.2
v -0.2 1.7 -0.3
v -0.2 1.7 -0.4
v -0.1 1.2 0
v -0.1 1.2 -0.1
v -0.1 1.4 0
v -0.1 1.4 -0.1
v -0.1 1.5 0.3
v -0.1 1.5 0.2
v -0.1 1.5 -0.3
v -0.1 1.5 -0.4
v -0.1 1.6 0.3
v -0.1 1.6 0.2
v -0.1 1.6 -0.3
v -0.1 1.6 -0.4
v -5.96046e-08 0.6 0.1
v -5.96046e-08 0.6 0
v -5.96046e-08 0.6 -0.1
v -5.96046e-08 0.6 -0.2
v -5.96046e-08 0.8 0.2
v -5.96046e-08 0.8 0.1
v -5.96046e-08 0.8 0
v -5.96046e-08 0.8 -0.1
v -5.96046e-08 0.8 -0.2
v -5.96046e-08 0.8 -0.3
v -5.96046e-08 1 0.2
v -5.96046e-08 1 0.1
v -5.96046e-08 1 -0.2
v -5.96046e-08 1 -0.3
v -5.96046e-08 1.1 0
v -5.96046e-08 1.1 -0.1
v -5.96046e-08 1.2 0
v -5.96046e-08 1.2 -0.1
v -5.96046e-08 1.4 0.1
v -5.96046e-08 1.4 0
v -5.96046e-08 1.4 -0.1
v -5.96046e-08 1.4 -0.2
v -5.96046e-08 1.5 0.1
v -5.96046e-08 1.5 0
v -5.96046e-08 1.5 -0.1
v -5.96046e-08 1.5 -0.2
v 0.0999999 0.4 0.1
v 0.0999999 0.4 0
v 0.0999999 0.4 -0.1
v 0.0999999 0.4 -0.2
v 0.0999999 0.5 0.1
v 0.0999999 0.5 0
v 0.0999999 0.5 -0.1
v 0.0999999 0.5 -0.2
v 0.0999999 0.6 0.1
v 0.0999999 0.6 0
v 0.0999999 0.6 -0.1
v 0.0999999 0.6 -0.2
v 0.0999999 0.7 0
v 0.0999999 0.7 -0.1
v 0.0999999 0.8 0
v 0.0999999 0.8 -0.1
v 0.0999999 1 0.2
v 0.0999999 1 0.1
v 0.0999999 1 -0.2
v 0.0999999 1 -0.3
v 0.0999999 1.1 0.2
v 0.0999999 1.1 0.1
v 0.0999999 1.1 -0.2
v 0.0999999 1.1 -0.3
v 0.0999999 1.3 0.2
v 0.0999999 1.3 0.1
v 0.0999999 1.3 -0.2
v 0.0999999 1.3 -0.3
v 0.0999999 1.4 0.3
v 0.0999999 1.4 0.2
v 0.0999999 1.4 0.1
v 0.0999999 1.4 -0.2
v 0.0999999 1.4 -0.3
v 0.0999999 1.4 -0.4
v 0.0999999 1.5 0.3
v 0.0999999 1.5 0.2
v 0.0999999 1.5 0.1
v 0.0999999 1.5 -0.2
v 0.0999999 1.5 -0.3
v 0.0999999 1.5 -0.4
v 0.0999999 1.6 0.2
v 0.0999999 1.6 -0.3
v 0.0999999 1.7 0.2
v 0.0999999 1.7 0.1
v 0.0999999 1.7 -0.2
v 0.0999999 1.7 -0.3
v 0.5 0.4 0.1
v 0.5 0.4 0
v 0.5 0.4 -0.1
v 0.5 0.4 -0.2
v 0.5 0.5 0.1
v 0.5 0.5 0
v 0.5 0.5 -0.1
v 0.5 0.5 -0.2
v 0.5 0.7 0
v 0.5 0.7 -0.1
v 0.5 0.8 0.1
v 0.5 0.8 0
v 0.5 0.8 -0.1
v 0.5 0.8 -0.2
v -0.1 1.6 0.3
v -0.1 1.6 0.2
v -0.1 1.6 -0.3
v -0.1 1.6 -0.4
v -0.1 1.7 0.3
v -0.1 1.7 0.2
v -0.1 1.7 -0.3
v -0.1 1.7 -0.4
v 0.0999999 1.4 0.1
v 0.0999999 1.4 0
v 0.0999999 1.4 -0.1
v 0.0999999 1.4 -0.2
v 0.0999999 1.5 0.3
v 0.0999999 1.5 0.2
v 0.0999999 1.5 0.1
v 0.0999999 1.5 0
v 0.0999999 1.5 -0.1
v 0.0999999 1.5 -0.2
v 0.0999999 1.5 -0.3
v 0.0999999 1.5 -0.4
v 0.0999999 1.6 0.3
v 0.0999999 1.6 0.2
v 0.0999999 1.6 -0.3
v 0.0999999 1.6 -0.4
v 0.2 0.4 0.1
v 0.2 0.4 0
v 0.2 0.4 -0.1
v 0.2 0.4 -0.2
v 0.2 0.5 0.1
v 0.2 0.5 0
v 0.2 0.5 -0.1
v 0.2 0.5 -0.2
v 0.2 0.7 0.1
v 0.2 0.7 0
v 0.2 0.7 -0.1
v 0.2 0.7 -0.2
v 0.2 1 0.2
v 0.2 1 0.1
v 0.2 1 -0.2
v 0.2 1 -0.3
v 0.2 1.1 0.2
v 0.2 1.1 0.1
v 0.2 1.1 -0.2
v 0.2 1.1 -0.3
v 0.2 1.3 0.2
v 0.2 1.3 0.1
v 0.2 1.3 -0.2
v 0.2 1.3 -0.3
v 0.2 1.4 0.3
v 0.2 1.4 0.2
v 0.2 1.4 0.1
v 0.2 1.4 -0.2
v 0.2 1.4 -0.3
v 0.2 1.4 -0.4
v 0.2 1.5 0.3
v 0.2 1.5 0.2
v 0.2 1.5 0.1
v 0.2 1.5 -0.2
v 0.2 1.5 -0.3
v 0.2 1.5 -0.4
v 0.2 1.7 0.2
v 0.2 1.7 0.1
v 0.2 1.7 -0.2
v 0.2 1.7 -0.3
v 0.3 0.7 0.1
v 0.3 0.7 0
v 0.3 0.7 -0.1
v 0.3 0.7 -0.2
v 0.3 0.8 0.2
v 0.3 0.8 0.1
v 0.3 0.8 0
v 0.3 0.8 -0.1
v 0.3 0.8 -0.2
v 0.3 0.8 -0.3
v 0.3 0.9 0.2
v 0.3 0.9 0.1
v 0.3 0.9 -0.2
v 0.3 0.9 -0.3
v 0.3 1 0.2
v 0.3 1 0.1
v 0.3 1 -0.2
v 0.3 1 -0.3
v 0.3 1.2 0.1
v 0.3 1.2 -0.2
v 0.3 1.3 0.1
v 0.3 1.3 -0.2
v 0.4 1.1 0.1
v 0.4 1.1 -0.2
v 0.4 1.2 0.1
v 0.4 1.2 -0.2
v 0.5 0.7 0
v 0.5 0.7 -0.1
v 0.5 0.8 0
v 0.5 0.8 -0.1
v 0.6 0.4 0.1
v 0.6 0.4 0
v 0.6 0.4 -0.1
v 0.6 0.4 -0.2
v 0.6 0.5 0.1
v 0.6 0.5 0
v 0.6 0.5 -0.1
v 0.6 0.5 -0.2
v 0.6 0.8 0.1
v 0.6 0.8 0
v 0.6 0.8 -0.1
v 0.6 0.8 -0.2
v 0.6 0.9 0.1
v 0.6 0.9 0
v 0.6 0.9 -0.1
v 0.6 0.9 -0.2
v 0.6 1 0.1
v 0.6 1 0
v 0.6 1 -0.1
v 0.6 1 -0.2
v 0.6 1.1 0.1
v 0.6 1.1 0
v 0.6 1.1 -0.1
v 0.6 1.1 -0.2
v 0.8 0.9 0
v 0.8 0.9 -0.1
v 0.8 1 0
v 0.8 1 -0.1
v 0.9 1 0
v 0.9 1 -0.1
v 0.9 1.1 0
v 0.9 1.1 -0.1
v -0.2 1.6 0.3
v -0.2 1.7 0.3
v -0.1 1.5 0.3
v -0.1 1.6 0.3
v -0.1 1.7 0.3
v 0.0999999 1.4 0.3
v 0.0999999 1.5 0.3
v 0.0999999 1.6 0.3
v 0.2 1.4 0.3
v 0.2 1.5 0.3
v -5.96046e-08 0.8 0.2
v -5.96046e-08 1 0.2
v 0.0999999 0.9 0.2
v 0.0999999 1 0.2
v 0.0999999 1.1 0.2
v 0.0999999 1.3 0.2
v 0.0999999 1.4 0.2
v 0.0999999 1.5 0.2
v 0.0999999 1.6 0.2
v 0.0999999 1.7 0.2
v 0.2 1 0.2
v 0.2 1.1 0.2
v 0.2 1.3 0.2
v 0.2 1.4 0.2
v 0.2 1.5 0.2
v 0.2 1.7 0.2
v 0.3 0.8 0.2
v 0.3 0.9 0.2
v 0.3 1 0.2
v -5.96046e-08 0.6 0.1
v -5.96046e-08 0.8 0.1
v -5.96046e-08 1 0.1
v -5.96046e-08 1.4 0.1
v -5.96046e-08 1.5 0.1
v 0.0999999 0.4 0.1
v 0.0999999 0.5 0.1
v 0.0999999 0.6 0.1
v 0.0999999 0.7 0.1
v 0.0999999 0.8 0.1
v 0.0999999 1 0.1
v 0.0999999 1.1 0.1
v 0.0999999 1.3 0.1
v 0.0999999 1.4 0.1
v 0.0999999 1.5 0.1
v 0.2 0.4 0.1
v 0.2 0.5 0.1
v 0.2 0.7 0.1
v 0.2 1 0.1
v 0.2 1.1 0.1
v 0.2 1.3 0.1
v 0.3 0.7 0.1
v 0.3 0.8 0.1
v 0.3 0.9 0.1
v 0.3 1 0.1
v 0.3 1.2 0.1
v 0.3 1.3 0.1
v 0.4 1.1 0.1
v 0.4 1.2 0.1
v 0.5 0.4 0.1
v 0.5 0.5 0.1
v 0.5 0.8 0.1
v 0.5 0.9 0.1
v 0.5 1 0.1
v 0.6 0.4 0.1
v 0.6 0.5 0.1
v 0.6 0.8 0.1
v 0.6 0.9 0.1
v 0.6 1 0.1
v 0.6 1.1 0.1
v -0.1 1.2 0
v -0.1 1.4 0
v -5.96046e-08 1.2 0
v -5.96046e-08 1.4 0
v 0.3 0.7 0
v 0.3 0.8 0
v 0.5 0.7 0
v 0.5 0.8 0
v 0.6 0.9 0
v 0.6 1 0
v 0.6 1.1 0
v 0.8 0.9 0
v 0.8 1 0
v 0.9 1 0
v 0.9 1.1 0
v -5.96046e-08 0.6 -0.1
v -5.96046e-08 0.8 -0.1
v 0.0999999 0.4 -0.1
v 0.0999999 0.5 -0.1
v 0.0999999 0.6 -0.1
v 0.0999999 0.7 -0.1
v 0.0999999 0.8 -0.1
v 0.2 0.4 -0.1
v 0.2 0.5 -0.1
v 0.2 0.7 -0.1
v 0.5 0.4 -0.1
v 0.5 0.5 -0.1
v 0.5 0.7 -0.1
v 0.5 0.8 -0.1
v 0.6 0.4 -0.1
v 0.6 0.5 -0.1
v 0.6 0.8 -0.1
v 0.0999999 1.5 -0.2
v 0.0999999 1.7 -0.2
v 0.2 1.5 -0.2
v 0.2 1.7 -0.2
v -0.2 1.6 -0.3
v -0.2 1.7 -0.3
v -0.1 1.5 -0.3
v -0.1 1.6 -0.3
v -0.1 1.7 -0.3
v 0.0999999 1.4 -0.3
v 0.0999999 1.5 -0.3
v 0.0999999 1.6 -0.3
v 0.2 1.4 -0.3
v 0.2 1.5 -0.3
v -0.2 1.6 0.2
v -0.2 1.7 0.2
v -0.1 1.5 0.2
v -0.1 1.6 0.2
v -0.1 1.7 0.2
v 0.0999999 1.4 0.2
v 0.0999999 1.5 0.2
v 0.0999999 1.6 0.2
v 0.2 1.4 0.2
v 0.2 1.5 0.2
v 0.0999999 1.5 0.1
v 0.0999999 1.7 0.1
v 0.2 1.5 0.1
v 0.2 1.7 0.1
v -5.96046e-08 0.6 0
v -5.96046e-08 0.8 0
v 0.0999999 0.4 0
v 0.0999999 0.5 0
v 0.0999999 0.6 0
v 0.0999999 0.7 0
v 0.0999999 0.8 0
v 0.2 0.4 0
v 0.2 0.5 0
v 0.2 0.7 0
v 0.5 0.4 0
v 0.5 0.5 0
v 0.5 0.7 0
v 0.5 0.8 0
v 0.6 0.4 0
v 0.6 0.5 0
v 0.6 0.8 0
v -0.1 1.2 -0.1
v -0.1 1.4 -0.1
v -5.96046e-08 1.2 -0.1
v -5.96046e-08 1.4 -0.1
v 0.3 0.7 -0.1
v 0.3 0.8 -0.1
v 0.5 0.7 -0.1
v 0.5 0.8 -0.1
v 0.6 0.9 -0.1
v 0.6 1 -0.1
v 0.6 1.1 -0.1
v 0.8 0.9 -0.1
v 0.8 1 -0.1
v 0.9 1 -0.1
v 0.9 1.1 -0.1
v -5.96046e-08 0.6 -0.2
v -5.96046e-08 0.8 -0.2
v -5.96046e-08 1 -0.2
v -5.96046e-08 1.4 -0.2
v -5.96046e-08 1.5 -0.2
v 0.0999999 0.4 -0.2
v 0.0999999 0.5 -0.2
v 0.0999999 0.6 -0.2
v 0.0999999 0.7 -0.2
v 0.0999999 0.8 -0.2
v 0.0999999 1 -0.2
v 0.0999999 1.1 -0.2
v 0.0999999 1.3 -0.2
v 0.0999999 1.4 -0.2
v 0.0999999 1.5 -0.2
v 0.2 0.4 -0.2
v 0.2 0.5 -0.2
v 0.2 0.7 -0.2
v 0.2 1 -0.2
v 0.2 1.1 -0.2
v 0.2 1.3 -0.2
v 0.3 0.7 -0.2
v 0.3 0.8 -0.2
v 0.3 0.9 -0.2
v 0.3 1 -0.2
v 0.3 1.2 -0.2
v 0.3 1.3 -0.2
v 0.4 1.1 -0.2
v 0.4 1.2 -0.2
v 0.5 0.4 -0.2
v 0.5 0.5 -0.2
v 0.5 0.8 -0.2
v 0.5 0.9 -0.2
v 0.5 1 -0.2
v 0.6 0.4 -0.2
v 0.6 0.5 -0.2
v 0.6 0.8 -0.2
v 0.6 0.9 -0.2
v 0.6 1 -0.2
v 0.6 1.1 -0.2
v -5.96046e-08 0.8 -0.3
v -5.96046e-08 1 -0.3
v 0.0999999 0.9 -0.3
v 0.0999999 1 -0.3
v 0.0999999 1.1 -0.3
v 0.0999999 1.3 -0.3
v 0.0999999 1.4 -0.3
v 0.0999999 1.5 -0.3
v 0.0999999 1.6 -0.3
v 0.0999999 1.7 -0.3
v 0.2 1 -0.3
v 0.2 1.1 -0.3
v 0.2 1.3 -0.3
v 0.2 1.4 -0.3
v 0.2 1.5 -0.3
v 0.2 1.7 -0.3
v 0.3 0.8 -0.3
v 0.3 0.9 -0.3
v 0.3 1 -0.3
v -0.2 1.6 -0.4
v -0.2 1.7 -0.4
v -0.1 1.5 -0.4
v -0.1 1.6 -0.4
v -0.1 1.7 -0.4
v 0.0999999 1.4 -0.4
v 0.0999999 1.5 -0.4
v 0.0999999 1.6 -0.4
v 0.2 1.4 -0.4
v 0.2 1.5 -0.4
v 0.0999999 0.4 0.1
v 0.2 0.4 0.1
v 0.5 0.4 0.1
v 0.6 0.4 0.1
v 0.0999999 0.4 0
v 0.2 0.4 0
v 0.5 0.4 0
v 0.6 0.4 0
v 0.0999999 0.4 -0.1
v 0.2 0.4 -0.1
v 0.5 0.4 -0.1
v 0.6 0.4 -0.1
v 0.0999999 0.4 -0.2
v 0.2 0.4 -0.2
v 0.5 0.4 -0.2
v 0.6 0.4 -0.2
v -5.96046e-08 0.6 0.1
v 0.0999999 0.6 0.1
v -5.96046e-08 0.6 0
v 0.0999999 0.6 0
v -5.96046e-08 0.6 -0.1
v 0.0999999 0.6 -0.1
v -5.96046e-08 0.6 -0.2
v 0.0999999 0.6 -0.2
v 0.2 0.7 0.1
v 0.3 0.7 0.1
v 0.0999999 0.7 0
v 0.2 0.7 0
v 0.3 0.7 0
v 0.5 0.7 0
v 0.0999999 0.7 -0.1
v 0.2 0.7 -0.1
v 0.3 0.7 -0.1
v 0.5 0.7 -0.1
v 0.2 0.7 -0.2
v 0.3 0.7 -0.2
v -5.96046e-08 0.8 0.2
v 0.3 0.8 0.2
v -5.96046e-08 0.8 0.1
v 0.0999999 0.8 0.1
v 0.3 0.8 0.1
v 0.5 0.8 0.1
v -5.96046e-08 0.8 0
v 0.0999999 0.8 0
v 0.3 0.8 0
v 0.5 0.8 0
v 0.6 0.8 0
v -5.96046e-08 0.8 -0.1
v 0.0999999 0.8 -0.1
v 0.3 0.8 -0.1
v 0.5 0.8 -0.1
v 0.6 0.8 -0.1
v -5.96046e-08 0.8 -0.2
v 0.0999999 0.8 -0.2
v 0.3 0.8 -0.2
v 0.5 0.8 -0.2
v -5.96046e-08 0.8 -0.3
v 0.3 0.8 -0.3
v 0.6 0.9 0
v 0.8 0.9 0
v 0.6 0.9 -0.1
v 0.8 0.9 -0.1
v 0.8 1 0
v 0.9 1 0
v 0.8 1 -0.1
v 0.9 1 -0.1
v -0.1 1.2 0
v -5.96046e-08 1.2 0
v -0.1 1.2 -0.1
v -5.96046e-08 1.2 -0.1
v 0.0999999 1.3 0.2
v 0.2 1.3 0.2
v 0.0999999 1.3 0.1
v 0.2 1.3 0.1
v 0.0999999 1.3 -0.2
v 0.2 1.3 -0.2
v 0.0999999 1.3 -0.3
v 0.2 1.3 -0.3
v 0.0999999 1.4 0.3
v 0.2 1.4 0.3
v 0.0999999 1.4 0.2
v 0.2 1.4 0.2
v 0.0999999 1.4 -0.3
v 0.2 1.4 -0.3
v 0.0999999 1.4 -0.4
v 0.2 1.4 -0.4
v -0.1 1.5 0.3
v 0.0999999 1.5 0.3
v -0.1 1.5 0.2
v 0.0999999 1.5 0.2
v 0.2 1.5 0.2
v 0.0999999 1.5 0.1
v 0.2 1.5 0.1
v 0.0999999 1.5 -0.2
v 0.2 1.5 -0.2
v -0.1 1.5 -0.3
v 0.0999999 1.5 -0.3
v 0.2 1.5 -0.3
v -0.1 1.5 -0.4
v 0.0999999 1.5 -0.4
v -0.2 1.6 0.3
v -0.1 1.6 0.3
v -0.2 1.6 0.2
v -0.1 1.6 0.2
v -0.2 1.6 -0.3
v -0.1 1.6 -0.3
v -0.2 1.6 -0.4
v -0.1 1.6 -0.4
v -5.96046e-08 1 0.2
v 0.0999999 1 0.2
v 0.2 1 0.2
v 0.3 1 0.2
v -5.96046e-08 1 0.1
v 0.0999999 1 0.1
v 0.2 1 0.1
v 0.3 1 0.1
v -5.96046e-08 1 -0.2
v 0.0999999 1 -0.2
v 0.2 1 -0.2
v 0.3 1 -0.2
v -5.96046e-08 1 -0.3
v 0.0999999 1 -0.3
v 0.2 1 -0.3
v 0.3 1 -0.3
v 0.0999999 1.1 0.2
v 0.2 1.1 0.2
v 0.0999999 1.1 0.1
v 0.2 1.1 0.1
v 0.4 1.1 0.1
v 0.6 1.1 0.1
v 0.6 1.1 0
v 0.9 1.1 0
v 0.6 1.1 -0.1
v 0.9 1.1 -0.1
v 0.0999999 1.1 -0.2
v 0.2 1.1 -0.2
v 0.4 1.1 -0.2
v 0.6 1.1 -0.2
v 0.0999999 1.1 -0.3
v 0.2 1.1 -0.3
v 0.3 1.2 0.1
v 0.4 1.2 0.1
v 0.3 1.2 -0.2
v 0.4 1.2 -0.2
v 0.2 1.3 0.1
v 0.3 1.3 0.1
v 0.2 1.3 -0.2
v 0.3 1.3 -0.2
v 0.0999999 1.4 0.2
v 0.2 1.4 0.2
v 0.0999999 1.4 0.1
v 0.2 1.4 0.1
v -0.1 1.4 0
v -5.96046e-08 1.4 0
v 0.0999999 1.4 0
v -0.1 1.4 -0.1
v -5.96046e-08 1.4 -0.1
v 0.0999999 1.4 -0.1
v 0.0999999 1.4 -0.2
v 0.2 1.4 -0.2
v 0.0999999 1.4 -0.3
v 0.2 1.4 -0.3
v 0.0999999 1.5 0.3
v 0.2 1.5 0.3
v 0.0999999 1.5 0.2
v 0.2 1.5 0.2
v -5.96046e-08 1.5 0.1
v 0.0999999 1.5 0.1
v -5.96046e-08 1.5 0
v 0.0999999 1.5 0
v -5.96046e-08 1.5 -0.1
v 0.0999999 1.5 -0.1
v -5.96046e-08 1.5 -0.2
v 0.0999999 1.5 -0.2
v 0.0999999 1.5 -0.3
v 0.2 1.5 -0.3
v 0.0999999 1.5 -0.4
v 0.2 1.5 -0.4
v -0.1 1.6 0.3
v 0.0999999 1.6 0.3
v -0.1 1.6 0.2
v 0.0999999 1.6 0.2
v -0.1 1.6 -0.3
v 0.0999999 1.6 -0.3
v -0.1 1.6 -0.4
v 0.0999999 1.6 -0.4
v -0.2 1.7 0.3
v -0.1 1.7 0.3
v -0.2 1.7 0.2
v -0.1 1.7 0.2
v 0.0999999 1.7 0.2
v 0.2 1.7 0.2
v 0.0999999 1.7 0.1
v 0.2 1.7 0.1
v 0.0999999 1.7 -0.2
v 0.2 1.7 -0.2
v -0.2 1.7 -0.3
v -0.1 1.7 -0.3
v 0.0999999 1.7 -0.3
v 0.2 1.7 -0.3
v -0.2 1.7 -0.4
v -0.1 1.7 -0.4

# faces
f 5/1/1 2/1/1 1/1/1
f 6/1/1 2/1/1 5/1/1
f 7/1/1 4/1/1 3/1/1
f 8/1/1 4/1/1 7/1/1
f 11/5/1 10/5/1 9/5/1
f 12/5/1 10/5/1 11/5/1
f 17/1/1 14/1/1 13/1/1
f 18/1/1 14/1/1 17/1/1
f 19/1/1 16/1/1 15/1/1
f 20/1/1 16/1/1 19/1/1
f 26/2/1 22/2/1 21/2/1
f 27/2/1 22/2/1 26/2/1
f 28/2/1 24/2/1 23/2/1
f 29/2/1 24/2/1 28/2/1
f 31/4/1 27/4/1 26/4/1
f 31/4/1 30/4/1 29/4/1
f 31/4/1 29/4/1 28/4/1
f 31/4/1 28/4/1 27/4/1
f 31/4/1 26/4/1 25/4/1
f 32/4/1 30/4/1 31/4/1
f 33/4/1 30/4/1 32/4/1
f 34/4/1 30/4/1 33/4/1
f 35/4/1 33/4/1 32/4/1
f 36/4/1 33/4/1 35/4/1
f 37/4/1 35/4/1 32/4/1
f 37/2/1 36/2/1 35/2/1
f 38/4/1 33/4/1 36/4/1
f 38/2/1 36/2/1 37/2/1
f 39/4/1 37/4/1 32/4/1
f 40/4/1 37/4/1 39/4/1
f 41/4/1 33/4/1 38/4/1
f 42/4/1 33/4/1 41/4/1
f 43/9/1 40/9/1 39/9/1
f 44/4/1 41/4/1 40/4/1
f 44/9/1 40/9/1 43/9/1
f 45/9/1 42/9/1 41/9/1
f 45/4/1 41/4/1 44/4/1
f 46/9/1 42/9/1 45/9/1
f 51/8/1 48/8/1 47/8/1
f 52/8/1 48/8/1 51/8/1
f 53/8/1 50/8/1 49/8/1
f 54/8/1 50/8/1 53/8/1
f 55/2/1 52/2/1 51/2/1
f 56/2/1 52/2/1 55/2/1
f 57/2/1 54/2/1 53/2/1
f 58/2/1 54/2/1 57/2/1
f 61/4/1 60/4/1 59/4/1
f 62/4/1 60/4/1 61/4/1
f 67/7/1 64/7/1 63/7/1
f 68/7/1 64/7/1 67/7/1
f 69/7/1 66/7/1 65/7/1
f 70/7/1 66/7/1 69/7/1
f 76/1/1 72/1/1 71/1/1
f 77/1/1 72/1/1 76/1/1
f 78/1/1 74/1/1 73/1/1
f 79/1/1 74/1/1 78/1/1
f 81/1/1 76/1/1 75/1/1
f 82/1/1 76/1/1 81/1/1
f 85/1/1 80/1/1 79/1/1
f 86/1/1 80/1/1 85/1/1
f 87/1/1 83/1/1 82/1/1
f 88/1/1 85/1/1 84/1/1
f 89/1/1 83/1/1 87/1/1
f 90/1/1 83/1/1 89/1/1
f 91/1/1 88/1/1 84/1/1
f 92/1/1 88/1/1 91/1/1
f 97/8/1 94/8/1 93/8/1
f 98/8/1 94/8/1 97/8/1
f 99/8/1 96/8/1 95/8/1
f 100/8/1 96/8/1 99/8/1
f 101/2/1 98/2/1 97/2/1
f 102/2/1 100/2/1 99/2/1
f 103/2/1 101/2/1 97/2/1
f 104/2/1 101/2/1 103/2/1
f 105/2/1 100/2/1 102/2/1
f 106/2/1 100/2/1 105/2/1
f 107/1/2 108/1/2 111/1/2
f 111/1/2 108/1/2 112/1/2
f 109/1/2 110/1/2 113/1/2
f 113/1/2 110/1/2 114/1/2
f 115/9/2 116/9/2 121/9/2
f 116/4/2 117/4/2 122/4/2
f 121/9/2 116/9/2 122/9/2
f 117/9/2 118/9/2 123/9/2
f 122/4/2 117/4/2 123/4/2
f 123/9/2 118/9/2 124/9/2
f 119/1/2 120/1/2 127/1/2
f 127/1/2 120/1/2 128/1/2
f 125/1/2 126/1/2 129/1/2
f 129/1/2 126/1/2 130/1/2
f 131/8/2 132/8/2 135/8/2
f 135/8/2 132/8/2 136/8/2
f 133/8/2 134/8/2 137/8/2
f 137/8/2 134/8/2 138/8/2
f 135/2/2 136/2/2 139/2/2
f 139/2/2 136/2/2 140/2/2
f 137/2/2 138/2/2 141/2/2
f 141/2/2 138/2/2 142/2/2
f 143/7/2 144/7/2 147/7/2
f 147/7/2 144/7/2 148/7/2
f 145/7/2 146/7/2 149/7/2
f 149/7/2 146/7/2 150/7/2
f 151/1/2 152/1/2 156/1/2
f 152/3/2 153/3/2 157/3/2
f 156/1/2 152/1/2 157/1/2
f 153/1/2 154/1/2 158/1/2
f 157/3/2 153/3/2 158/3/2
f 158/1/2 154/1/2 159/1/2
f 155/1/2 156/1/2 161/1/2
f 161/1/2 156/1/2 162/1/2
f 159/1/2 160/1/2 165/1/2
f 165/1/2 160/1/2 166/1/2
f 162/1/2 163/1/2 167/1/2
f 167/1/2 163/1/2 168/1/2
f 164/1/2 165/1/2 169/1/2
f 169/1/2 165/1/2 170/1/2
f 171/4/2 172/4/2 176/4/2
f 176/4/2 172/4/2 177/4/2
f 173/4/2 174/4/2 178/4/2
f 178/4/2 174/4/2 179/4/2
f 175/4/2 176/4/2 181/4/2
f 181/4/2 176/4/2 182/4/2
f 179/4/2 180/4/2 183/4/2
f 183/4/2 180/4/2 184/4/2
f 181/3/2 182/3/2 185/3/2
f 185/3/2 182/3/2 186/3/2
f 183/3/2 184/3/2 187/3/2
f 187/3/2 184/3/2 188/3/2
f 189/3/2 190/3/2 191/3/2
f 191/3/2 190/3/2 192/3/2
f 193/3/2 194/3/2 195/3/2
f 195/3/2 194/3/2 196/3/2
f 197/2/2 198/2/2 199/2/2
f 199/2/2 198/2/2 200/2/2
f 201/8/2 202/8/2 205/8/2
f 205/8/2 202/8/2 206/8/2
f 203/8/2 204/8/2 207/8/2
f 207/8/2 204/8/2 208/8/2
f 205/2/2 206/2/2 209/2/2
f 209/2/2 206/2/2 210/2/2
f 207/2/2 208/2/2 211/2/2
f 211/2/2 208/2/2 212/2/2
f 209/4/2 210/4/2 213/4/2
f 210/4/2 211/4/2 213/4/2
f 211/4/2 212/4/2 213/4/2
f 213/4/2 212/4/2 214/4/2
f 214/4/2 212/4/2 215/4/2
f 215/4/2 212/4/2 216/4/2
f 213/2/2 214/2/2 217/2/2
f 217/2/2 214/2/2 218/2/2
f 215/2/2 216/2/2 219/2/2
f 219/2/2 216/2/2 220/2/2
f 217/3/2 218/3/2 221/3/2
f 221/3/2 218/3/2 222/3/2
f 219/3/2 220/3/2 223/3/2
f 223/3/2 220/3/2 224/3/2
f 225/3/2 226/3/2 227/3/2
f 227/3/2 226/3/2 228/3/2
f 229/3/2 230/3/2 231/3/2
f 231/3/2 230/3/2 232/3/2
f 236/1/3 234/1/3 233/1/3
f 237/1/3 234/1/3 236/1/3
f 239/1/3 236/1/3 235/1/3
f 240/1/3 236/1/3 239/1/3
f 241/1/3 239/1/3 238/1/3
f 242/1/3 239/1/3 241/1/3
f 245/4/3 244/4/3 243/4/3
f 246/4/3 244/4/3 245/4/3
f 253/3/3 246/3/3 245/3/3
f 253/7/3 247/7/3 246/7/3
f 254/7/3 247/7/3 253/7/3
f 255/1/3 249/1/3 248/1/3
f 256/1/3 249/1/3 255/1/3
f 257/1/3 252/1/3 251/1/3
f 257/1/3 251/1/3 250/1/3
f 258/1/3 252/1/3 257/1/3
f 259/4/3 245/4/3 243/4/3
f 260/3/3 253/3/3 245/3/3
f 260/4/3 245/4/3 259/4/3
f 261/3/3 253/3/3 260/3/3
f 269/2/3 263/2/3 262/2/3
f 270/2/3 263/2/3 269/2/3
f 271/2/3 263/2/3 270/2/3
f 272/4/3 265/4/3 264/4/3
f 273/4/3 265/4/3 272/4/3
f 274/4/3 265/4/3 273/4/3
f 275/9/3 266/9/3 265/9/3
f 275/4/3 265/4/3 274/4/3
f 276/9/3 266/9/3 275/9/3
f 277/8/3 268/8/3 267/8/3
f 278/2/3 269/2/3 268/2/3
f 278/8/3 268/8/3 277/8/3
f 278/2/3 270/2/3 269/2/3
f 279/4/3 271/4/3 270/4/3
f 279/2/3 270/2/3 278/2/3
f 281/3/3 274/3/3 273/3/3
f 282/3/3 274/3/3 281/3/3
f 283/4/3 271/4/3 279/4/3
f 284/4/3 271/4/3 283/4/3
f 286/3/3 282/3/3 281/3/3
f 286/3/3 281/3/3 280/3/3
f 287/3/3 282/3/3 286/3/3
f 288/3/3 282/3/3 287/3/3
f 289/3/3 286/3/3 285/3/3
f 289/3/3 287/3/3 286/3/3
f 290/3/3 287/3/3 289/3/3
f 293/4/3 285/4/3 284/4/3
f 294/3/3 289/3/3 285/3/3
f 294/4/3 285/4/3 293/4/3
f 295/3/3 289/3/3 294/3/3
f 296/8/3 292/8/3 291/8/3
f 297/2/3 293/2/3 292/2/3
f 297/8/3 292/8/3 296/8/3
f 298/4/3 294/4/3 293/4/3
f 298/2/3 293/2/3 297/2/3
f 299/2/3 295/2/3 294/2/3
f 299/4/3 294/4/3 298/4/3
f 300/3/3 289/3/3 295/3/3
f 300/2/3 295/2/3 299/2/3
f 301/3/3 289/3/3 300/3/3
f 304/5/3 303/5/3 302/5/3
f 305/5/3 303/5/3 304/5/3
f 308/2/3 307/2/3 306/2/3
f 309/2/3 307/2/3 308/2/3
f 313/3/3 311/3/3 310/3/3
f 313/3/3 312/3/3 311/3/3
f 314/3/3 312/3/3 313/3/3
f 315/3/3 312/3/3 314/3/3
f 316/3/3 312/3/3 315/3/3
f 321/2/3 318/2/3 317/2/3
f 322/2/3 318/2/3 321/2/3
f 323/2/3 318/2/3 322/2/3
f 324/8/3 320/8/3 319/8/3
f 325/2/3 321/2/3 320/2/3
f 325/8/3 320/8/3 324/8/3
f 325/2/3 322/2/3 321/2/3
f 326/2/3 322/2/3 325/2/3
f 331/8/3 328/8/3 327/8/3
f 332/2/3 329/2/3 328/2/3
f 332/8/3 328/8/3 331/8/3
f 332/2/3 330/2/3 329/2/3
f 333/2/3 330/2/3 332/2/3
f 336/1/3 335/1/3 334/1/3
f 337/1/3 335/1/3 336/1/3
f 341/1/3 339/1/3 338/1/3
f 342/1/3 339/1/3 341/1/3
f 344/1/3 341/1/3 340/1/3
f 345/1/3 341/1/3 344/1/3
f 346/1/3 344/1/3 343/1/3
f 347/1/3 344/1/3 346/1/3
f 348/1/4 349/1/4 351/1/4
f 351/1/4 349/1/4 352/1/4
f 350/1/4 351/1/4 354/1/4
f 354/1/4 351/1/4 355/1/4
f 353/1/4 354/1/4 356/1/4
f 356/1/4 354/1/4 357/1/4
f 358/1/4 359/1/4 360/1/4
f 360/1/4 359/1/4 361/1/4
f 362/2/4 363/2/4 366/2/4
f 366/2/4 363/2/4 367/2/4
f 367/2/4 363/2/4 368/2/4
f 364/8/4 365/8/4 369/8/4
f 365/2/4 366/2/4 370/2/4
f 369/8/4 365/8/4 370/8/4
f 366/2/4 367/2/4 370/2/4
f 370/2/4 367/2/4 371/2/4
f 372/8/4 373/8/4 376/8/4
f 373/2/4 374/2/4 377/2/4
f 376/8/4 373/8/4 377/8/4
f 374/2/4 375/2/4 377/2/4
f 377/2/4 375/2/4 378/2/4
f 379/5/4 380/5/4 381/5/4
f 381/5/4 380/5/4 382/5/4
f 383/2/4 384/2/4 385/2/4
f 385/2/4 384/2/4 386/2/4
f 387/3/4 388/3/4 390/3/4
f 388/3/4 389/3/4 390/3/4
f 390/3/4 389/3/4 391/3/4
f 391/3/4 389/3/4 392/3/4
f 392/3/4 389/3/4 393/3/4
f 394/2/4 395/2/4 401/2/4
f 401/2/4 395/2/4 402/2/4
f 402/2/4 395/2/4 403/2/4
f 396/4/4 397/4/4 404/4/4
f 404/4/4 397/4/4 405/4/4
f 405/4/4 397/4/4 406/4/4
f 397/9/4 398/9/4 407/9/4
f 406/4/4 397/4/4 407/4/4
f 407/9/4 398/9/4 408/9/4
f 399/8/4 400/8/4 409/8/4
f 400/2/4 401/2/4 410/2/4
f 409/8/4 400/8/4 410/8/4
f 401/2/4 402/2/4 410/2/4
f 402/4/4 403/4/4 411/4/4
f 410/2/4 402/2/4 411/2/4
f 405/3/4 406/3/4 413/3/4
f 413/3/4 406/3/4 414/3/4
f 411/4/4 403/4/4 415/4/4
f 415/4/4 403/4/4 416/4/4
f 413/3/4 414/3/4 418/3/4
f 412/3/4 413/3/4 418/3/4
f 418/3/4 414/3/4 419/3/4
f 419/3/4 414/3/4 420/3/4
f 417/3/4 418/3/4 421/3/4
f 418/3/4 419/3/4 421/3/4
f 421/3/4 419/3/4 422/3/4
f 416/4/4 417/4/4 425/4/4
f 417/3/4 421/3/4 426/3/4
f 425/4/4 417/4/4 426/4/4
f 426/3/4 421/3/4 427/3/4
f 423/8/4 424/8/4 428/8/4
f 424/2/4 425/2/4 429/2/4
f 428/8/4 424/8/4 429/8/4
f 425/4/4 426/4/4 430/4/4
f 429/2/4 425/2/4 430/2/4
f 426/2/4 427/2/4 431/2/4
f 430/4/4 426/4/4 431/4/4
f 427/3/4 421/3/4 432/3/4
f 431/2/4 427/2/4 432/2/4
f 432/3/4 421/3/4 433/3/4
f 434/4/4 435/4/4 436/4/4
f 436/4/4 435/4/4 437/4/4
f 436/3/4 437/3/4 444/3/4
f 437/7/4 438/7/4 444/7/4
f 444/7/4 438/7/4 445/7/4
f 439/1/4 440/1/4 446/1/4
f 446/1/4 440/1/4 447/1/4
f 442/1/4 443/1/4 448/1/4
f 441/1/4 442/1/4 448/1/4
f 448/1/4 443/1/4 449/1/4
f 434/4/4 436/4/4 450/4/4
f 436/3/4 444/3/4 451/3/4
f 450/4/4 436/4/4 451/4/4
f 451/3/4 444/3/4 452/3/4
f 453/1/4 454/1/4 456/1/4
f 456/1/4 454/1/4 457/1/4
f 455/1/4 456/1/4 459/1/4
f 459/1/4 456/1/4 460/1/4
f 458/1/4 459/1/4 461/1/4
f 461/1/4 459/1/4 462/1/4
f 467/8/5 464/8/5 463/8/5
f 468/8/5 464/8/5 467/8/5
f 469/8/5 466/8/5 465/8/5
f 470/8/5 466/8/5 469/8/5
f 475/8/5 472/8/5 471/8/5
f 476/8/5 472/8/5 475/8/5
f 477/8/5 474/8/5 473/8/5
f 478/8/5 474/8/5 477/8/5
f 481/2/5 480/2/5 479/2/5
f 482/2/5 480/2/5 481/2/5
f 485/2/5 484/2/5 483/2/5
f 486/2/5 484/2/5 485/2/5
f 490/4/5 488/4/5 487/4/5
f 491/4/5 488/4/5 490/4/5
f 493/4/5 490/4/5 489/4/5
f 493/4/5 491/4/5 490/4/5
f 494/4/5 491/4/5 493/4/5
f 495/2/5 492/2/5 491/2/5
f 495/4/5 491/4/5 494/4/5
f 496/2/5 492/2/5 495/2/5
f 497/4/5 495/4/5 494/4/5
f 498/4/5 495/4/5 497/4/5
f 501/4/5 500/4/5 499/4/5
f 502/4/5 500/4/5 501/4/5
f 503/4/5 500/4/5 502/4/5
f 507/4/5 504/4/5 503/4/5
f 508/4/5 504/4/5 507/4/5
f 510/4/5 506/4/5 505/4/5
f 511/4/5 506/4/5 510/4/5
f 513/4/5 509/4/5 508/4/5
f 514/4/5 509/4/5 513/4/5
f 517/4/5 513/4/5 512/4/5
f 518/4/5 513/4/5 517/4/5
f 519/4/5 516/4/5 515/4/5
f 519/4/5 517/4/5 516/4/5
f 520/4/5 517/4/5 519/4/5
f 523/3/5 522/3/5 521/3/5
f 524/3/5 522/3/5 523/3/5
f 527/3/5 526/3/5 525/3/5
f 528/3/5 526/3/5 527/3/5
f 531/5/5 530/5/5 529/5/5
f 532/5/5 530/5/5 531/5/5
f 535/1/5 534/1/5 533/1/5
f 536/1/5 534/1/5 535/1/5
f 539/1/5 538/1/5 537/1/5
f 540/1/5 538/1/5 539/1/5
f 543/1/5 542/1/5 541/1/5
f 544/1/5 542/1/5 543/1/5
f 547/1/5 546/1/5 545/1/5
f 548/1/5 546/1/5 547/1/5
f 551/1/5 550/1/5 549/1/5
f 552/1/5 550/1/5 551/1/5
f 554/1/5 553/1/5 552/1/5
f 555/1/5 553/1/5 554/1/5
f 559/1/5 557/1/5 556/1/5
f 560/1/5 557/1/5 559/1/5
f 561/1/5 559/1/5 558/1/5
f 562/1/5 559/1/5 561/1/5
f 565/1/5 564/1/5 563/1/5
f 566/1/5 564/1/5 565/1/5
f 569/1/5 568/1/5 567/1/5
f 570/1/5 568/1/5 569/1/5
f 571/4/6 572/4/6 575/4/6
f 575/4/6 572/4/6 576/4/6
f 573/3/6 574/3/6 577/3/6
f 577/3/6 574/3/6 578/3/6
f 579/4/6 580/4/6 583/4/6
f 583/4/6 580/4/6 584/4/6
f 581/3/6 582/3/6 585/3/6
f 585/3/6 582/3/6 586/3/6
f 587/7/6 588/7/6 589/7/6
f 589/7/6 588/7/6 590/7/6
f 591/3/6 592/3/6 593/3/6
f 591/3/6 593/3/6 595/3/6
f 593/3/6 594/3/6 595/3/6
f 595/3/6 594/3/6 596/3/6
f 591/3/6 595/3/6 599/3/6
f 599/3/6 595/3/6 600/3/6
f 597/7/6 598/7/6 601/7/6
f 601/7/6 598/7/6 602/7/6
f 603/3/6 604/3/6 605/3/6
f 605/3/6 604/3/6 606/3/6
f 607/3/6 608/3/6 609/3/6
f 609/3/6 608/3/6 610/3/6
f 611/1/6 612/1/6 613/1/6
f 613/1/6 612/1/6 614/1/6
f 613/3/6 614/3/6 617/3/6
f 615/5/6 616/5/6 618/5/6
f 618/5/6 616/5/6 619/5/6
f 617/3/6 614/3/6 620/3/6
f 620/3/6 614/3/6 621/3/6
f 621/3/6 614/3/6 622/3/6
f 621/1/6 622/1/6 623/1/6
f 623/1/6 622/1/6 624/1/6
f 625/1/6 626/1/6 627/1/6
f 627/1/6 626/1/6 628/1/6
f 629/9/6 630/9/6 631/9/6
f 631/9/6 630/9/6 632/9/6
f 631/4/6 632/4/6 633/4/6
f 633/4/6 632/4/6 634/4/6
f 633/9/6 634/9/6 635/9/6
f 635/9/6 634/9/6 636/9/6
f 637/1/6 638/1/6 639/1/6
f 639/1/6 638/1/6 640/1/6
f 641/1/6 642/1/6 643/1/6
f 643/1/6 642/1/6 644/1/6
f 645/1/6 646/1/6 647/1/6
f 647/1/6 646/1/6 648/1/6
f 649/1/6 650/1/6 651/1/6
f 651/1/6 650/1/6 652/1/6
f 653/1/6 654/1/6 655/1/6
f 655/1/6 654/1/6 656/1/6
f 657/1/6 658/1/6 661/1/6
f 661/1/6 658/1/6 662/1/6
f 659/1/6 660/1/6 663/1/6
f 663/1/6 660/1/6 664/1/6
