# MagicaVoxel @ Ephtracy

# group
o 

# material
mtllib TV.mtl
usemtl palette

# normals
vn -1 0 0
vn 1 0 0
vn 0 0 1
vn 0 0 -1
vn 0 -1 0
vn 0 1 0

# texcoords
vt 0.822266 0.5
vt 0.841797 0.5
vt 0.955078 0.5
vt 0.966797 0.5

# verts
v -12.3 -3.7 -5.4
v -12.3 -3.7 -6.2
v -12.3 8.3 -5.4
v -12.3 8.3 -6.2
v -11.7 -3.3 -6.2
v -11.7 -3.3 -6.6
v -11.7 7.9 -6.2
v -11.7 7.9 -6.6
v -10.5 -3.8 -5.3
v -10.5 -3.8 -6.2
v -10.5 -3.7 -5
v -10.5 -3.7 -5.3
v -10.5 -3.7 -5.4
v -10.5 -3.7 -6.2
v -10.5 -3.3 -5
v -10.5 -3.3 -5.4
v -9.8 -3.8 -5.2
v -9.8 -3.8 -5.3
v -9.8 -3.7 -5.2
v -9.8 -3.7 -5.3
v -4.8 -5.8 -4
v -4.8 -5.8 -7
v -4.8 -5.7 -4
v -4.8 -5.7 -7
v -1.7 -5.7 -5.7
v -1.7 -5.7 -6.1
v -1.7 -3.7 -5.7
v -1.7 -3.7 -6.1
v 6.3 -3.9 -5.9
v 6.3 -3.9 -6.2
v 6.3 -3.8 -5
v 6.3 -3.8 -5.9
v 6.3 -3.7 -5.4
v 6.3 -3.7 -6.2
v 6.3 -3.3 -5
v 6.3 -3.3 -5.4
v 8.2 -3.9 -5.8
v 8.2 -3.9 -5.9
v 8.2 -3.8 -5.8
v 8.2 -3.8 -5.9
v 9 -3.1 -5.3
v 9 -3.1 -5.4
v 9 -3 -5.3
v 9 -3 -5.4
v 10 -3.1 -5.3
v 10 -3.1 -5.4
v 10 -3 -5.3
v 10 -3 -5.4
v 11.1 -2.1 -5.4
v 11.1 -2.1 -5.8
v 11.1 7.5 -5.4
v 11.1 7.5 -5.8
v -11.7 -2.1 -5.4
v -11.7 -2.1 -5.8
v -11.7 7.5 -5.4
v -11.7 7.5 -5.8
v -6.9 -3.8 -5.2
v -6.9 -3.8 -6.2
v -6.9 -3.7 -5
v -6.9 -3.7 -5.2
v -6.9 -3.7 -5.4
v -6.9 -3.7 -6.2
v -6.9 -3.3 -5
v -6.9 -3.3 -5.4
v 1.2 -5.7 -5.7
v 1.2 -5.7 -6.1
v 1.2 -3.7 -5.7
v 1.2 -3.7 -6.1
v 4.8 -5.8 -4
v 4.8 -5.8 -7
v 4.8 -5.7 -4
v 4.8 -5.7 -7
v 9.4 -3.1 -5.3
v 9.4 -3.1 -5.4
v 9.4 -3 -5.3
v 9.4 -3 -5.4
v 9.9 -3.9 -5.8
v 9.9 -3.9 -6.2
v 9.9 -3.8 -5
v 9.9 -3.8 -5.8
v 9.9 -3.7 -5.4
v 9.9 -3.7 -6.2
v 9.9 -3.3 -5
v 9.9 -3.3 -5.4
v 10.3 -3.1 -5.3
v 10.3 -3.1 -5.4
v 10.3 -3 -5.3
v 10.3 -3 -5.4
v 11.1 -3.3 -6.2
v 11.1 -3.3 -6.6
v 11.1 7.9 -6.2
v 11.1 7.9 -6.6
v 11.7 -3.7 -5.4
v 11.7 -3.7 -6.2
v 11.7 8.3 -5.4
v 11.7 8.3 -6.2
v -4.8 -5.8 -4
v -4.8 -5.7 -4
v 4.8 -5.8 -4
v 4.8 -5.7 -4
v -10.5 -3.7 -5
v -10.5 -3.3 -5
v -6.9 -3.7 -5
v -6.9 -3.3 -5
v 6.3 -3.8 -5
v 6.3 -3.3 -5
v 9.9 -3.8 -5
v 9.9 -3.3 -5
v -9.8 -3.8 -5.2
v -9.8 -3.7 -5.2
v -6.9 -3.8 -5.2
v -6.9 -3.7 -5.2
v -10.5 -3.8 -5.3
v -10.5 -3.7 -5.3
v -9.8 -3.8 -5.3
v -9.8 -3.7 -5.3
v 9 -3.1 -5.3
v 9 -3 -5.3
v 9.4 -3.1 -5.3
v 9.4 -3 -5.3
v 10 -3.1 -5.3
v 10 -3 -5.3
v 10.3 -3.1 -5.3
v 10.3 -3 -5.3
v -12.3 -3.7 -5.4
v -12.3 8.3 -5.4
v -11.7 -2.1 -5.4
v -11.7 7.5 -5.4
v -10.5 -3.7 -5.4
v -10.5 -3.3 -5.4
v -6.9 -3.7 -5.4
v -6.9 -3.3 -5.4
v 6.3 -3.7 -5.4
v 6.3 -3.3 -5.4
v 9 -3.1 -5.4
v 9 -3 -5.4
v 9.4 -3.1 -5.4
v 9.4 -3 -5.4
v 9.9 -3.7 -5.4
v 9.9 -3.3 -5.4
v 10 -3.1 -5.4
v 10 -3 -5.4
v 10.3 -3.1 -5.4
v 10.3 -3 -5.4
v 11.1 -2.1 -5.4
v 11.1 7.5 -5.4
v 11.7 -3.7 -5.4
v 11.7 8.3 -5.4
v -1.7 -5.7 -5.7
v -1.7 -3.7 -5.7
v 1.2 -5.7 -5.7
v 1.2 -3.7 -5.7
v -11.7 -2.1 -5.8
v -11.7 7.5 -5.8
v 8.2 -3.9 -5.8
v 8.2 -3.8 -5.8
v 9.9 -3.9 -5.8
v 9.9 -3.8 -5.8
v 11.1 -2.1 -5.8
v 11.1 7.5 -5.8
v 6.3 -3.9 -5.9
v 6.3 -3.8 -5.9
v 8.2 -3.9 -5.9
v 8.2 -3.8 -5.9
v -1.7 -5.7 -6.1
v -1.7 -3.7 -6.1
v 1.2 -5.7 -6.1
v 1.2 -3.7 -6.1
v -12.3 -3.7 -6.2
v -12.3 8.3 -6.2
v -11.7 -3.3 -6.2
v -11.7 7.9 -6.2
v -10.5 -3.8 -6.2
v -10.5 -3.7 -6.2
v -6.9 -3.8 -6.2
v -6.9 -3.7 -6.2
v 6.3 -3.9 -6.2
v 6.3 -3.7 -6.2
v 9.9 -3.9 -6.2
v 9.9 -3.7 -6.2
v 11.1 -3.3 -6.2
v 11.1 7.9 -6.2
v 11.7 -3.7 -6.2
v 11.7 8.3 -6.2
v -11.7 -3.3 -6.6
v -11.7 7.9 -6.6
v 11.1 -3.3 -6.6
v 11.1 7.9 -6.6
v -4.8 -5.8 -7
v -4.8 -5.7 -7
v 4.8 -5.8 -7
v 4.8 -5.7 -7
v -4.8 -5.8 -4
v 4.8 -5.8 -4
v -4.8 -5.8 -7
v 4.8 -5.8 -7
v 8.2 -3.9 -5.8
v 9.9 -3.9 -5.8
v 6.3 -3.9 -5.9
v 8.2 -3.9 -5.9
v 6.3 -3.9 -6.2
v 9.9 -3.9 -6.2
v 6.3 -3.8 -5
v 9.9 -3.8 -5
v -9.8 -3.8 -5.2
v -6.9 -3.8 -5.2
v -10.5 -3.8 -5.3
v -9.8 -3.8 -5.3
v 8.2 -3.8 -5.8
v 9.9 -3.8 -5.8
v 6.3 -3.8 -5.9
v 8.2 -3.8 -5.9
v -10.5 -3.8 -6.2
v -6.9 -3.8 -6.2
v -10.5 -3.7 -5
v -6.9 -3.7 -5
v -9.8 -3.7 -5.2
v -6.9 -3.7 -5.2
v -10.5 -3.7 -5.3
v -9.8 -3.7 -5.3
v -12.3 -3.7 -5.4
v -10.5 -3.7 -5.4
v -6.9 -3.7 -5.4
v 6.3 -3.7 -5.4
v 9.9 -3.7 -5.4
v 11.7 -3.7 -5.4
v -1.7 -3.7 -5.7
v 1.2 -3.7 -5.7
v -1.7 -3.7 -6.1
v 1.2 -3.7 -6.1
v -12.3 -3.7 -6.2
v -10.5 -3.7 -6.2
v -6.9 -3.7 -6.2
v 6.3 -3.7 -6.2
v 9.9 -3.7 -6.2
v 11.7 -3.7 -6.2
v -11.7 -3.3 -6.2
v 11.1 -3.3 -6.2
v -11.7 -3.3 -6.6
v 11.1 -3.3 -6.6
v 9 -3.1 -5.3
v 9.4 -3.1 -5.3
v 10 -3.1 -5.3
v 10.3 -3.1 -5.3
v 9 -3.1 -5.4
v 9.4 -3.1 -5.4
v 10 -3.1 -5.4
v 10.3 -3.1 -5.4
v -11.7 7.5 -5.4
v 11.1 7.5 -5.4
v -11.7 7.5 -5.8
v 11.1 7.5 -5.8
v -4.8 -5.7 -4
v 4.8 -5.7 -4
v -1.7 -5.7 -5.7
v 1.2 -5.7 -5.7
v -1.7 -5.7 -6.1
v 1.2 -5.7 -6.1
v -4.8 -5.7 -7
v 4.8 -5.7 -7
v -10.5 -3.3 -5
v -6.9 -3.3 -5
v 6.3 -3.3 -5
v 9.9 -3.3 -5
v -10.5 -3.3 -5.4
v -6.9 -3.3 -5.4
v 6.3 -3.3 -5.4
v 9.9 -3.3 -5.4
v 9 -3 -5.3
v 9.4 -3 -5.3
v 10 -3 -5.3
v 10.3 -3 -5.3
v 9 -3 -5.4
v 9.4 -3 -5.4
v 10 -3 -5.4
v 10.3 -3 -5.4
v -11.7 -2.1 -5.4
v 11.1 -2.1 -5.4
v -11.7 -2.1 -5.8
v 11.1 -2.1 -5.8
v -11.7 7.9 -6.2
v 11.1 7.9 -6.2
v -11.7 7.9 -6.6
v 11.1 7.9 -6.6
v -12.3 8.3 -5.4
v 11.7 8.3 -5.4
v -12.3 8.3 -6.2
v 11.7 8.3 -6.2

# faces
f 3/3/1 2/3/1 1/3/1
f 4/3/1 2/3/1 3/3/1
f 7/3/1 6/3/1 5/3/1
f 8/3/1 6/3/1 7/3/1
f 12/3/1 10/3/1 9/3/1
f 13/3/1 10/3/1 12/3/1
f 14/3/1 10/3/1 13/3/1
f 15/3/1 12/3/1 11/3/1
f 15/3/1 13/3/1 12/3/1
f 16/3/1 13/3/1 15/3/1
f 19/3/1 18/3/1 17/3/1
f 20/3/1 18/3/1 19/3/1
f 23/3/1 22/3/1 21/3/1
f 24/3/1 22/3/1 23/3/1
f 27/3/1 26/3/1 25/3/1
f 28/3/1 26/3/1 27/3/1
f 32/3/1 30/3/1 29/3/1
f 33/3/1 32/3/1 31/3/1
f 34/3/1 30/3/1 32/3/1
f 34/3/1 32/3/1 33/3/1
f 35/3/1 33/3/1 31/3/1
f 36/3/1 33/3/1 35/3/1
f 39/3/1 38/3/1 37/3/1
f 40/3/1 38/3/1 39/3/1
f 43/4/1 42/4/1 41/4/1
f 44/4/1 42/4/1 43/4/1
f 47/2/1 46/2/1 45/2/1
f 48/2/1 46/2/1 47/2/1
f 51/3/1 50/3/1 49/3/1
f 52/3/1 50/3/1 51/3/1
f 53/3/2 54/3/2 55/3/2
f 55/3/2 54/3/2 56/3/2
f 57/3/2 58/3/2 60/3/2
f 60/3/2 58/3/2 61/3/2
f 61/3/2 58/3/2 62/3/2
f 59/3/2 60/3/2 63/3/2
f 60/3/2 61/3/2 63/3/2
f 63/3/2 61/3/2 64/3/2
f 65/3/2 66/3/2 67/3/2
f 67/3/2 66/3/2 68/3/2
f 69/3/2 70/3/2 71/3/2
f 71/3/2 70/3/2 72/3/2
f 73/4/2 74/4/2 75/4/2
f 75/4/2 74/4/2 76/4/2
f 77/3/2 78/3/2 80/3/2
f 79/3/2 80/3/2 81/3/2
f 80/3/2 78/3/2 82/3/2
f 81/3/2 80/3/2 82/3/2
f 79/3/2 81/3/2 83/3/2
f 83/3/2 81/3/2 84/3/2
f 85/2/2 86/2/2 87/2/2
f 87/2/2 86/2/2 88/2/2
f 89/3/2 90/3/2 91/3/2
f 91/3/2 90/3/2 92/3/2
f 93/3/2 94/3/2 95/3/2
f 95/3/2 94/3/2 96/3/2
f 99/3/3 98/3/3 97/3/3
f 100/3/3 98/3/3 99/3/3
f 103/3/3 102/3/3 101/3/3
f 104/3/3 102/3/3 103/3/3
f 107/3/3 106/3/3 105/3/3
f 108/3/3 106/3/3 107/3/3
f 111/3/3 110/3/3 109/3/3
f 112/3/3 110/3/3 111/3/3
f 115/3/3 114/3/3 113/3/3
f 116/3/3 114/3/3 115/3/3
f 119/4/3 118/4/3 117/4/3
f 120/4/3 118/4/3 119/4/3
f 123/2/3 122/2/3 121/2/3
f 124/2/3 122/2/3 123/2/3
f 127/3/3 126/3/3 125/3/3
f 128/3/3 126/3/3 127/3/3
f 129/3/3 127/3/3 125/3/3
f 130/3/3 127/3/3 129/3/3
f 132/3/3 127/3/3 130/3/3
f 133/3/3 132/3/3 131/3/3
f 134/3/3 127/3/3 132/3/3
f 134/3/3 132/3/3 133/3/3
f 135/3/3 127/3/3 134/3/3
f 136/3/3 127/3/3 135/3/3
f 137/3/3 135/3/3 134/3/3
f 138/3/3 127/3/3 136/3/3
f 140/3/3 137/3/3 134/3/3
f 140/3/3 138/3/3 137/3/3
f 141/3/3 138/3/3 140/3/3
f 141/3/3 140/3/3 139/3/3
f 142/3/3 127/3/3 138/3/3
f 142/3/3 138/3/3 141/3/3
f 143/3/3 141/3/3 139/3/3
f 144/3/3 127/3/3 142/3/3
f 145/3/3 127/3/3 144/3/3
f 145/3/3 144/3/3 143/3/3
f 146/3/3 126/3/3 128/3/3
f 147/3/3 145/3/3 143/3/3
f 147/3/3 146/3/3 145/3/3
f 147/3/3 143/3/3 139/3/3
f 148/3/3 126/3/3 146/3/3
f 148/3/3 146/3/3 147/3/3
f 151/3/3 150/3/3 149/3/3
f 152/3/3 150/3/3 151/3/3
f 157/3/3 156/3/3 155/3/3
f 158/3/3 156/3/3 157/3/3
f 159/1/3 154/1/3 153/1/3
f 160/1/3 154/1/3 159/1/3
f 163/3/3 162/3/3 161/3/3
f 164/3/3 162/3/3 163/3/3
f 165/3/4 166/3/4 167/3/4
f 167/3/4 166/3/4 168/3/4
f 169/3/4 170/3/4 171/3/4
f 171/3/4 170/3/4 172/3/4
f 169/3/4 171/3/4 174/3/4
f 173/3/4 174/3/4 175/3/4
f 174/3/4 171/3/4 176/3/4
f 175/3/4 174/3/4 176/3/4
f 176/3/4 171/3/4 178/3/4
f 177/3/4 178/3/4 179/3/4
f 178/3/4 171/3/4 180/3/4
f 179/3/4 178/3/4 180/3/4
f 180/3/4 171/3/4 181/3/4
f 172/3/4 170/3/4 182/3/4
f 180/3/4 181/3/4 183/3/4
f 181/3/4 182/3/4 183/3/4
f 182/3/4 170/3/4 184/3/4
f 183/3/4 182/3/4 184/3/4
f 185/3/4 186/3/4 187/3/4
f 187/3/4 186/3/4 188/3/4
f 189/3/4 190/3/4 191/3/4
f 191/3/4 190/3/4 192/3/4
f 195/3/5 194/3/5 193/3/5
f 196/3/5 194/3/5 195/3/5
f 200/3/5 198/3/5 197/3/5
f 201/3/5 200/3/5 199/3/5
f 202/3/5 198/3/5 200/3/5
f 202/3/5 200/3/5 201/3/5
f 208/3/5 206/3/5 205/3/5
f 209/3/5 204/3/5 203/3/5
f 210/3/5 204/3/5 209/3/5
f 211/3/5 209/3/5 203/3/5
f 212/3/5 209/3/5 211/3/5
f 213/3/5 208/3/5 207/3/5
f 214/3/5 206/3/5 208/3/5
f 214/3/5 208/3/5 213/3/5
f 217/3/5 216/3/5 215/3/5
f 218/3/5 216/3/5 217/3/5
f 219/3/5 217/3/5 215/3/5
f 220/3/5 217/3/5 219/3/5
f 227/3/5 224/3/5 223/3/5
f 228/3/5 224/3/5 227/3/5
f 229/3/5 227/3/5 223/3/5
f 230/3/5 224/3/5 228/3/5
f 231/3/5 222/3/5 221/3/5
f 232/3/5 222/3/5 231/3/5
f 233/3/5 230/3/5 229/3/5
f 233/3/5 229/3/5 223/3/5
f 234/3/5 224/3/5 230/3/5
f 234/3/5 230/3/5 233/3/5
f 235/3/5 226/3/5 225/3/5
f 236/3/5 226/3/5 235/3/5
f 239/3/5 238/3/5 237/3/5
f 240/3/5 238/3/5 239/3/5
f 245/4/5 242/4/5 241/4/5
f 246/4/5 242/4/5 245/4/5
f 247/2/5 244/2/5 243/2/5
f 248/2/5 244/2/5 247/2/5
f 251/3/5 250/3/5 249/3/5
f 252/3/5 250/3/5 251/3/5
f 253/3/6 254/3/6 255/3/6
f 255/3/6 254/3/6 256/3/6
f 253/3/6 255/3/6 257/3/6
f 256/3/6 254/3/6 258/3/6
f 253/3/6 257/3/6 259/3/6
f 257/3/6 258/3/6 259/3/6
f 258/3/6 254/3/6 260/3/6
f 259/3/6 258/3/6 260/3/6
f 261/3/6 262/3/6 265/3/6
f 265/3/6 262/3/6 266/3/6
f 263/3/6 264/3/6 267/3/6
f 267/3/6 264/3/6 268/3/6
f 269/4/6 270/4/6 273/4/6
f 273/4/6 270/4/6 274/4/6
f 271/2/6 272/2/6 275/2/6
f 275/2/6 272/2/6 276/2/6
f 277/3/6 278/3/6 279/3/6
f 279/3/6 278/3/6 280/3/6
f 281/3/6 282/3/6 283/3/6
f 283/3/6 282/3/6 284/3/6
f 285/3/6 286/3/6 287/3/6
f 287/3/6 286/3/6 288/3/6
